<svg width="16" height="18" viewBox="0 0 16 18" fill="none" xmlns="http://www.w3.org/2000/svg">
<path d="M8 0.5C7.73478 0.5 7.48043 0.605357 7.29289 0.792893C7.10536 0.98043 7 1.23478 7 1.5V16.5C7 16.7652 7.10536 17.0196 7.29289 17.2071C7.48043 17.3946 7.73478 17.5 8 17.5C8.26522 17.5 8.51957 17.3946 8.70711 17.2071C8.89464 17.0196 9 16.7652 9 16.5V1.5C9 1.23478 8.89464 0.98043 8.70711 0.792893C8.51957 0.605357 8.26522 0.5 8 0.5ZM15 8.5C14.7348 8.5 14.4804 8.60536 14.2929 8.79289C14.1054 8.98043 14 9.23478 14 9.5V16.5C14 16.7652 14.1054 17.0196 14.2929 17.2071C14.4804 17.3946 14.7348 17.5 15 17.5C15.2652 17.5 15.5196 17.3946 15.7071 17.2071C15.8946 17.0196 16 16.7652 16 16.5V9.5C16 9.23478 15.8946 8.98043 15.7071 8.79289C15.5196 8.60536 15.2652 8.5 15 8.5ZM1 4.5C0.734784 4.5 0.48043 4.60536 0.292893 4.79289C0.105357 4.98043 0 5.23478 0 5.5V16.5C0 16.7652 0.105357 17.0196 0.292893 17.2071C0.48043 17.3946 0.734784 17.5 1 17.5C1.26522 17.5 1.51957 17.3946 1.70711 17.2071C1.89464 17.0196 2 16.7652 2 16.5V5.5C2 5.23478 1.89464 4.98043 1.70711 4.79289C1.51957 4.60536 1.26522 4.5 1 4.5Z" fill="white"/>
</svg>
