<svg width="17" height="19" viewBox="0 0 17 19" fill="none" xmlns="http://www.w3.org/2000/svg">
<path fill-rule="evenodd" clip-rule="evenodd" d="M9.36105 1.16042L15.5032 4.2315C15.759 4.35862 15.9743 4.55459 16.1249 4.79738C16.2754 5.04016 16.3553 5.32013 16.3554 5.6058V12.9227C16.3553 13.2083 16.2754 13.4883 16.1249 13.7311C15.9743 13.9739 15.759 14.1698 15.5032 14.297L9.36105 17.368C9.14772 17.4748 8.91245 17.5304 8.6739 17.5304C8.43535 17.5304 8.20008 17.4748 7.98674 17.368L1.84458 14.297C1.58902 14.1682 1.37452 13.9706 1.22529 13.7264C1.07606 13.4822 0.998046 13.2011 1.00004 12.915V5.6058C1.00019 5.32013 1.08003 5.04016 1.23058 4.79738C1.38114 4.55459 1.59643 4.35862 1.85226 4.2315L7.99442 1.16042C8.20675 1.05491 8.44063 1 8.67774 1C8.91484 1 9.14872 1.05491 9.36105 1.16042Z" stroke="black" stroke-linecap="round" stroke-linejoin="round"/>
<path d="M1.24585 4.77664L8.67786 8.49265M8.67786 8.49265L16.1099 4.77664M8.67786 8.49265V17.5216M4.83901 2.73438L12.5167 6.57322" stroke="black" stroke-linecap="round" stroke-linejoin="round"/>
</svg>
