<svg width="18" height="18" viewBox="0 0 18 18" fill="none" xmlns="http://www.w3.org/2000/svg">
<path d="M11.5512 9.49718C14.1677 9.49718 16.298 7.36694 16.298 4.7504C16.298 2.13387 14.1677 0 11.5512 0C8.93468 0 6.80444 2.13024 6.80444 4.74677C6.80444 7.36331 8.93468 9.49718 11.5512 9.49718ZM11.5512 0.725806C13.7722 0.725806 15.5758 2.52581 15.5758 4.74677C15.5758 6.96774 13.7758 8.77137 11.5548 8.77137C9.33388 8.77137 7.53025 6.97137 7.53025 4.7504C7.53025 4.7504 7.53025 4.7504 7.53025 4.74677C7.53388 2.52944 9.33025 0.729436 11.5512 0.725806Z" fill="white"/>
<path d="M11.5512 6.30361C11.221 6.30361 10.956 6.03506 10.956 5.70845C10.956 5.50885 10.7927 5.34555 10.5931 5.34555C10.3899 5.34555 10.2266 5.50522 10.223 5.70845C10.223 6.29998 10.6331 6.80079 11.1411 6.96772V7.29433C11.1411 7.49393 11.3044 7.65724 11.504 7.65724C11.7036 7.65724 11.8669 7.49393 11.8669 7.29433V6.9895C12.5746 6.81167 13.0028 6.09313 12.825 5.38546C12.6762 4.80119 12.15 4.38748 11.5476 4.38748C11.2173 4.38748 10.9524 4.11893 10.956 3.78869C10.9597 3.45845 11.2246 3.19353 11.5548 3.19716C11.8815 3.19716 12.1464 3.46571 12.1464 3.79232C12.1464 3.99192 12.3097 4.15522 12.5093 4.15522C12.7052 4.15522 12.8649 3.99555 12.8649 3.79595V3.79232C12.8649 3.18627 12.4548 2.66006 11.8669 2.51127V2.36974C11.8669 2.17014 11.7036 2.00684 11.504 2.00684C11.3044 2.00684 11.1411 2.17014 11.1411 2.36974V2.53305C10.6331 2.70361 10.223 3.20442 10.223 3.79232C10.223 4.52175 10.8145 5.11329 11.5476 5.11329C11.8778 5.11329 12.1427 5.38184 12.1391 5.71208C12.1391 6.03506 11.8778 6.29998 11.5512 6.30361ZM17.0238 10.927C16.5556 10.35 15.7101 10.2629 15.1294 10.731C14.4036 11.3226 13.3476 12.1754 12.6617 12.7306C12.179 13.1189 11.5839 13.3403 10.9633 13.3621L9.10524 13.4238C9.02903 13.4274 8.96008 13.3875 8.92016 13.3258L8.71331 12.9701C8.67702 12.9121 8.67339 12.8431 8.70242 12.7814C8.73145 12.7197 8.78589 12.6762 8.85121 12.6653L10.771 12.3024C11.446 12.1754 11.9177 11.5367 11.8415 10.8435C11.769 10.1758 11.2028 9.67498 10.5351 9.67498C10.5169 9.67498 10.4952 9.67498 10.4698 9.67498L7.90403 9.56974C6.88064 9.53345 6.00242 9.72942 4.9754 10.2266L3.63266 10.8762C3.44395 10.4843 3.04839 10.2339 2.6129 10.2339H1.12863C0.508065 10.2302 0.00362903 10.731 0 11.3516V16.8786C0.00362903 17.4992 0.508065 18 1.12863 18H2.6129C3.23347 18 3.73427 17.4992 3.7379 16.8786V16.5048L5.16411 16.2435C5.625 16.1746 5.91532 16.1492 6.40524 16.1709L10.3065 16.3524C11.7109 16.4141 13.0863 15.9496 14.1641 15.0496L16.8677 12.8068L16.8714 12.8032C17.4121 12.3423 17.4919 11.533 17.0528 10.9742C17.0456 10.956 17.0347 10.9415 17.0238 10.927ZM3.0121 16.8786C3.0121 17.0963 2.83427 17.2742 2.61653 17.2742H1.12137C0.903629 17.2742 0.725806 17.0963 0.725806 16.8786V11.3552C0.725806 11.1375 0.903629 10.9597 1.12137 10.9597H2.61653C2.83427 10.9597 3.0121 11.1375 3.0121 11.3552V16.8786ZM16.4032 12.248L13.7032 14.4871C12.7633 15.2709 11.5621 15.6738 10.3391 15.623L6.4379 15.4415C5.88992 15.4161 5.55605 15.4488 5.05161 15.5213C5.04798 15.5213 5.04435 15.5213 5.04073 15.525L3.7379 15.7645V11.6274L5.29113 10.8762C6.20564 10.4334 6.97863 10.2593 7.875 10.2919L10.4589 10.3972C10.4734 10.3972 10.4915 10.3972 10.506 10.3972C10.5097 10.3972 10.5242 10.3972 10.5351 10.3972C10.8327 10.4008 11.0867 10.6222 11.123 10.9197C11.1593 11.2318 10.9488 11.5222 10.6403 11.5839L8.72056 11.9468C8.21613 12.0411 7.88589 12.531 7.98024 13.0355C8.00202 13.1407 8.03831 13.2423 8.09274 13.333L8.2996 13.6851C8.47379 13.979 8.79315 14.1532 9.13427 14.1423L10.9923 14.0806C11.769 14.0516 12.5165 13.7722 13.1226 13.2895C13.8085 12.7343 14.8681 11.8814 15.594 11.2899C15.8552 11.0867 16.229 11.1193 16.4504 11.3661C16.4577 11.3806 16.4685 11.3951 16.4794 11.4097C16.6863 11.6601 16.6536 12.0375 16.4032 12.248Z" fill="white"/>
</svg>
