<svg width="18" height="18" viewBox="0 0 18 18" fill="none" xmlns="http://www.w3.org/2000/svg">
<path d="M9.7435 9.77205C10.9861 9.77205 11.9935 10.8099 11.9935 12.0901L11.9923 13.2465C12.1466 16.0846 10.0248 17.5 6.09018 17.5C2.16824 17.5 0 16.1032 0 13.287V12.0901C0 10.8099 1.00734 9.77205 2.24996 9.77205H9.7435ZM15.7443 9.77205C16.9869 9.77205 17.9942 10.8099 17.9942 12.0901L17.9931 12.9038C18.1287 15.4497 16.254 16.7261 12.8272 16.7261C12.362 16.7261 11.9247 16.7027 11.5163 16.656C11.9523 16.2428 12.277 15.7496 12.484 15.1767L12.8272 15.1807C15.5034 15.1807 16.5734 14.4523 16.4943 12.9461V12.0901C16.4943 11.6633 16.1585 11.3174 15.7443 11.3174L12.6489 11.3174C12.4971 10.7096 12.1703 10.1741 11.7271 9.77141L15.7443 9.77205ZM9.7435 11.3174H2.24996C1.83575 11.3174 1.49997 11.6633 1.49997 12.0901V13.287C1.49997 15.058 2.89186 15.9547 6.09018 15.9547C9.27579 15.9547 10.5896 15.0783 10.4935 13.2897V12.0901C10.4935 11.6633 10.1577 11.3174 9.7435 11.3174ZM5.99989 0.5C8.07125 0.5 9.75043 2.22996 9.75043 4.36398C9.75043 6.49799 8.07125 8.22796 5.99989 8.22796C3.92852 8.22796 2.24935 6.49799 2.24935 4.36398C2.24935 2.22996 3.92852 0.5 5.99989 0.5ZM13.4997 2.04534C15.1566 2.04534 16.4997 3.42909 16.4997 5.13602C16.4997 6.84296 15.1566 8.2267 13.4997 8.2267C11.8429 8.2267 10.4998 6.84296 10.4998 5.13602C10.4998 3.42909 11.8429 2.04534 13.4997 2.04534ZM5.99989 2.04534C4.75694 2.04534 3.74932 3.08343 3.74932 4.36398C3.74932 5.64453 4.75694 6.68262 5.99989 6.68262C7.24284 6.68262 8.25045 5.64453 8.25045 4.36398C8.25045 3.08343 7.24284 2.04534 5.99989 2.04534ZM13.4997 3.59068C12.6713 3.59068 11.9998 4.28255 11.9998 5.13602C11.9998 5.98949 12.6713 6.68136 13.4997 6.68136C14.3282 6.68136 14.9997 5.98949 14.9997 5.13602C14.9997 4.28255 14.3282 3.59068 13.4997 3.59068Z" fill="#A4A4A4"/>
</svg>
